g adv_forestStage.wbox
v 10.54454 0 3.33398
v 10.55675 0 -5.54005
v 5.056049 0 -1.460179
v 6.220053 0 3.247008
v 7.33728 0 -5.587256
v 5.015265 0 2.127089
v 6.037645 0 -4.305671
v 4.67878 0 2.126825
v 5.743009 0 -4.318611
v 3.656295 0 3.109844
v 3.800352 0 -5.930033
v 3.377608 0 0.9539421
v 2.385537 0 2.920515
v 3.544282 0 3.49968
v 3.500813 0 5.533178
v -1.622286 0 5.451836
v 3.384187 0 0.09811109
v 2.919142 0 -0.660266
v 2.899355 0 -5.324358
v 2.686021 0 1.645621
v 1.451476 0 1.674599
v 1.449962 0 2.736676
v 1.13465 0 3.194898
v -3.314228 0 4.497209
v -3.317928 0 4.999987
v 2.760892 0 -5.602026
v -3.794513 0 4.482308
v -6.105496 0 4.175333
v -3.765413 0 5.049087
v -4.681727 0 4.129841
v -4.916511 0 5.517475
v -5.259659 0 3.635944
v -5.225697 0 5.570373
v -5.642219 0 2.982714
v -7.067875 0 5.529742
v -5.662054 0 -4.242569
v 0.01230717 0 -9.430988
v 1.700388 0 -8.935053
v 0.8657507 0 -7.207204
v 1.286765 0 -9.515244
v 0.5895567 0 -7.325415
v 0.522027 0 -10.00633
v -3.160218 0 -8.637329
v -0.3337418 0 -10.0904
v -1.443369 0 -10.01012
v -3.654669 0 -8.634162
v -4.652718 0 -9.809593
v -6.460766 0 -7.175729
v -8.871267 0 -6.671621
v -10.42199 0 -9.78315
v -6.575656 0 -6.760089
v -10.58733 0 -3.367276

vn 0 1 0
vn 0 1 0
vn 0 1 0
vn 0 1 0
vn 0 1 0
vn 0 1 0
vn 0 1 0
vn 0 1 0
vn 0 0.9999999 0
vn 0 1 0
vn 0 0.9999999 0
vn 0 1 0
vn 0 1 0
vn 0 1 0
vn 0 1 0
vn 0 1 0
vn 0 1 0
vn 0 1 0
vn 0 1 0
vn 0 1 0
vn 0 1 0
vn 0 1 0
vn 0 1 0
vn 0 1 0
vn 0 0.9999999 0
vn 0 1 0
vn 0 1 0
vn 0 1 0
vn 0 1 0
vn 0 1 0
vn 0 1 0
vn 0 1 0
vn 0 1 0
vn 0 1 0
vn 0 1 0
vn 0 1 0
vn 0 1 0
vn 0 1 0
vn 0 1 0
vn 0 1 0
vn 0 1 0
vn 0 1 0
vn 0 0.9999999 0
vn 0 1 0
vn 0 1 0
vn 0 1 0
vn 0 1 0
vn 0 1 0
vn 0 1 0
vn 0 0.9999999 0
vn 0 1 0
vn 0 1 0


f 1/1/1 2/2/2 3/3/3
f 1/1/1 3/3/3 4/4/4
f 5/5/5 3/3/3 2/2/2
f 4/4/4 3/3/3 6/6/6
f 7/7/7 3/3/3 5/5/5
f 6/6/6 3/3/3 8/8/8
f 9/9/9 3/3/3 7/7/7
f 8/8/8 3/3/3 10/10/10
f 11/11/11 3/3/3 9/9/9
f 3/3/3 12/12/12 10/10/10
f 10/10/10 12/12/12 13/13/13
f 10/10/10 13/13/13 14/14/14
f 14/14/14 13/13/13 15/15/15
f 15/15/15 13/13/13 16/16/16
f 3/3/3 17/17/17 12/12/12
f 17/17/17 3/3/3 18/18/18
f 18/18/18 3/3/3 19/19/19
f 19/19/19 3/3/3 11/11/11
f 13/13/13 12/12/12 20/20/20
f 13/13/13 20/20/20 21/21/21
f 13/13/13 21/21/21 22/22/22
f 13/13/13 22/22/22 23/23/23
f 16/16/16 13/13/13 23/23/23
f 16/16/16 23/23/23 24/24/24
f 16/16/16 24/24/24 25/25/25
f 19/19/19 11/11/11 26/26/26
f 25/25/25 24/24/24 27/27/27
f 25/25/25 27/27/27 28/28/28
f 25/25/25 28/28/28 29/29/29
f 28/28/28 27/27/27 30/30/30
f 29/29/29 28/28/28 31/31/31
f 28/28/28 30/30/30 32/32/32
f 31/31/31 28/28/28 33/33/33
f 28/28/28 32/32/32 34/34/34
f 33/33/33 28/28/28 35/35/35
f 28/28/28 34/34/34 36/36/36
f 35/35/35 28/28/28 36/36/36
f 11/11/11 37/37/37 26/26/26
f 38/38/38 37/37/37 11/11/11
f 37/37/37 39/39/39 26/26/26
f 40/40/40 37/37/37 38/38/38
f 37/37/37 41/41/41 39/39/39
f 42/42/42 37/37/37 40/40/40
f 37/37/37 43/43/43 41/41/41
f 44/44/44 37/37/37 42/42/42
f 37/37/37 44/44/44 45/45/45
f 37/37/37 46/46/46 43/43/43
f 37/37/37 45/45/45 47/47/47
f 47/47/47 46/46/46 37/37/37
f 47/47/47 48/48/48 46/46/46
f 49/49/49 48/48/48 47/47/47
f 50/50/50 49/49/49 47/47/47
f 49/49/49 51/51/51 48/48/48
f 52/52/52 49/49/49 50/50/50
f 49/49/49 36/36/36 51/51/51
f 35/35/35 49/49/49 52/52/52
f 35/35/35 36/36/36 49/49/49
